<?xml version="1.0" encoding="utf-8"?>
<!-- Generator: Adobe Illustrator 16.0.0, SVG Export Plug-In . SVG Version: 6.00 Build 0)  -->
<!DOCTYPE svg PUBLIC "-//W3C//DTD SVG 1.1 Basic//EN" "http://www.w3.org/Graphics/SVG/1.1/DTD/svg11-basic.dtd">
<svg version="1.1" baseProfile="basic" xmlns="http://www.w3.org/2000/svg" xmlns:xlink="http://www.w3.org/1999/xlink" x="0px"
	 y="0px" width="260px" height="300px" viewBox="0 0 260 300" xml:space="preserve">
<g id="Layer_1">
	<rect x="113.706" y="442.939" fill="#A82D32" width="77" height="39"/>
	<rect x="36.706" y="442.439" fill="#007C72" width="77" height="39"/>
	<rect x="190.706" y="442.939" fill="#842128" width="77" height="39"/>
	<rect x="267.706" y="442.939" fill="#4F151B" width="77" height="39"/>
	<rect x="-40.294" y="442.439" fill="#00A99D" width="77" height="39"/>
</g>
<g id="Layer_2">
	<g>
		<g>
			<g>
				<g>
					<path fill="#E2F2F0" d="M130,170.425L9.266,131.196C26.599,77.853,73.912,43.478,130,43.478V170.425z"/>
				</g>
			</g>
			<g>
				<g>
					<path fill="#007C72" d="M130,170.425L55.382,273.128C10.005,240.16-8.066,184.54,9.266,131.196L130,170.425z"/>
				</g>
			</g>
			<g>
				<g>
					<path fill="#4CD8C7" d="M130,170.425l74.618,102.703c-45.377,32.968-103.859,32.968-149.236,0L130,170.425z"/>
				</g>
			</g>
			<g>
				<g>
					<path fill="#00A99D" d="M130,170.425l120.734-39.229c17.332,53.344-0.739,108.963-46.116,141.932L130,170.425z"/>
				</g>
			</g>
			<g>
				<g>
					<path fill="#91CEC8" d="M130,170.425V43.478c56.089,0,103.402,34.375,120.734,87.719L130,170.425z"/>
				</g>
			</g>
		</g>
		<g>
			<g>
			</g>
			<g>
			</g>
			<g>
			</g>
			<g>
			</g>
			<g>
			</g>
		</g>
	</g>
</g>
<g id="Layer_3">
	<text transform="matrix(1 0 0 1 81.6519 254.1357)"><tspan x="0" y="0" fill="#0B564F" font-family="'HelveticaNeue'" font-size="12">Making Awesome</tspan><tspan x="0" y="14.4" fill="#0B564F" font-family="'HelveticaNeue'" font-size="12">       Websites</tspan></text>
	<text transform="matrix(1 0 0 1 68.9702 113.9854)" fill="#0B564F" font-family="'HelveticaNeue'" font-size="12">Design</text>
	<text transform="matrix(1 0 0 1 151.7578 113.9854)"><tspan x="0" y="0" fill="#0B564F" font-family="'HelveticaNeue'" font-size="12">User</tspan><tspan x="0" y="14.4" fill="#0B564F" font-family="'HelveticaNeue'" font-size="12">Experience</tspan></text>
	<text transform="matrix(1 0 0 1 168.4243 186.501)"><tspan x="0" y="0" fill="#0B564F" font-family="'HelveticaNeue'" font-size="12">Information </tspan><tspan x="0" y="14.4" fill="#0B564F" font-family="'HelveticaNeue'" font-size="12">Architecture</tspan></text>
	<text transform="matrix(1 0 0 1 27.1821 186.501)" fill="#E2F2F0" font-family="'HelveticaNeue'" font-size="12">Illustration</text>
	<text transform="matrix(1 0 0 1 25.7612 29.9277)" fill="#007C72" font-family="'Scratch-Basic'" font-size="36">INTERESTS</text>
	<text transform="matrix(1 0 0 1 26.7612 29.9277)" fill="#F2F2F2" font-family="'Scratch-Basic'" font-size="36">INTERESTS</text>
</g>
</svg>
